<?xml version="1.0" encoding="utf-8"?>
<!-- Generator: Adobe Illustrator 26.3.1, SVG Export Plug-In . SVG Version: 6.00 Build 0)  -->
<svg version="1.1" id="artwork" xmlns="http://www.w3.org/2000/svg" xmlns:xlink="http://www.w3.org/1999/xlink" x="0px" y="0px"
	 width="403px" height="298.3px" viewBox="0 0 403 298.3" style="enable-background:new 0 0 403 298.3;" xml:space="preserve">
<style type="text/css">
	.st0{fill:#EE0000;}
	.st1{fill:#DEDEDE;}
	.st2{fill:#FFFFFF;stroke:#DEDEDE;stroke-width:3;stroke-miterlimit:10;}
	.st3{clip-path:url(#SVGID_00000054229990384069559730000016397048441108074942_);}
	.st4{fill:#FFFFFF;stroke:#DEDEDE;stroke-miterlimit:10;}
	.st5{clip-path:url(#SVGID_00000146500062585166661860000002760011843541844362_);}
	.st6{fill:#FFFFFF;}
	.st7{fill:none;stroke:#FDDBDB;stroke-width:3;stroke-linecap:round;stroke-linejoin:round;}
	.st8{stroke:#000000;stroke-width:3;stroke-linecap:round;stroke-linejoin:round;}
	.st9{fill:none;stroke:#EE0000;stroke-width:3;stroke-linecap:round;stroke-linejoin:round;}
	.st10{fill:#FFFFFF;stroke:#EE0000;stroke-width:3;stroke-linecap:round;stroke-linejoin:round;}
	.st11{fill:#EE0000;stroke:#EE0000;stroke-width:3;stroke-miterlimit:10;}
	.st12{fill:#8F0000;}
	.st13{fill:none;stroke:#8F0000;stroke-width:3;stroke-linecap:round;stroke-linejoin:round;}
	.st14{fill:#8F0000;stroke:#8F0000;stroke-width:3;stroke-linecap:round;stroke-linejoin:round;}
	.st15{fill:none;stroke:#5F0000;stroke-width:3;stroke-linecap:round;stroke-linejoin:round;}
	.st16{fill:#8F0000;stroke:#8F0000;stroke-miterlimit:10;}
	.st17{fill:none;stroke:#000000;stroke-width:3;stroke-linecap:round;stroke-linejoin:round;}
	.st18{stroke:#000000;stroke-width:0.5;stroke-linecap:round;stroke-linejoin:round;}
	.st19{fill:#FAB6B6;}
	.st20{fill:none;stroke:#FAB6B6;stroke-width:3;stroke-linecap:round;stroke-linejoin:round;}
	.st21{fill:#FFFFFF;stroke:#FFFFFF;stroke-width:3;stroke-linecap:round;stroke-linejoin:round;}
	.st22{fill:none;stroke:#F56D6D;stroke-width:3;stroke-linecap:round;stroke-linejoin:round;}
	.st23{fill:none;stroke:#C9C9C9;stroke-width:3;stroke-linecap:round;stroke-linejoin:round;}
	.st24{fill:none;stroke:#C9C9C9;stroke-width:3;stroke-miterlimit:10;}
	.st25{fill:#FAB6B6;stroke:#FAB6B6;stroke-width:3;stroke-linecap:round;stroke-linejoin:round;}
	.st26{fill:#EE0000;stroke:#EE0000;stroke-width:3;stroke-linecap:round;stroke-linejoin:round;}
	.st27{fill:none;stroke:#FFD9DA;stroke-width:3;stroke-linecap:round;stroke-linejoin:round;}
	.st28{stroke:#000000;stroke-width:3;stroke-miterlimit:10;}
	.st29{fill:none;}
	.st30{fill:none;stroke:#FFFFFF;stroke-width:3;stroke-linecap:round;stroke-linejoin:round;}
</style>
<path class="st0" d="M99.3,12.7c-1.9,0-3.8,0.3-5.6,0.9C87.1,1.1,71.7-3.6,59.3,2.9c-5.4,2.9-9.6,7.6-11.8,13.3
	c-6.8,0.2-12.7,4.4-15.3,10.6c-1-0.3-2-0.4-3-0.4c-6.7,0-12.1,5.5-12.1,12.2s5.4,12.1,12.1,12.1h70.2c10.5,0,19.1-8.6,19.1-19.1
	S109.8,12.7,99.3,12.7L99.3,12.7z"/>
<path class="st1" d="M64.6,111.5c-0.9-9.2-2.6-18.3-2.9-27.5c-0.3-10.8,1.6-22.4,5.1-32.7c7.3-21.6,24.1-36.9,46-43.2
	c27.2-7.8,56.2-8.3,81.9,4.6c21.9,11,40.8,29.5,60,44.4c17.3,13.4,34.3,27.1,51.2,41.1c20.5,17,39.4,36.3,42.2,64.1
	c1.7,17-2.6,34.9-11.4,49.5c-10.2,16.9-25.9,25-45,28.7c-25.5,5-51.7,2.7-77.4,4.3c-25.3,1.5-50.2,11.7-68.5,29.3
	c-22.9,22-66,32.1-92.4,11.1C37.8,272.9,31.5,252,29.8,233c-1.6-18.2,1.5-38.2,11.1-53.9c10.1-16.7,22-31.6,24-51.8
	C65.2,122.1,65.1,116.8,64.6,111.5z"/>
<path class="st1" d="M347.9,162.4c-2.7-27.8-21.7-47.1-42.2-64.1c-16.8-14-33.9-27.7-51.2-41.1c-19.2-14.9-38.1-33.4-60-44.4
	c-25.7-13-54.6-12.4-81.9-4.6c-21.9,6.3-38.6,21.6-46,43.2c-3.5,10.3-5.4,21.8-5.1,32.7c0.3,9.2,2,18.3,2.9,27.5
	c0.6,5.3,0.6,10.6,0.2,15.9c-0.1,1.5-0.3,3-0.6,4.4c-2.2,12.5-8.1,23-14.6,33.4c-2.9,4.6-5.9,9.2-8.8,13.9
	c-9.5,15.6-12.7,35.7-11.1,53.8c1.7,19,8,39.9,23.5,52.2c26.5,21,69.6,10.9,92.4-11.1c18.3-17.6,43.2-27.8,68.5-29.3
	c25.7-1.5,51.9,0.7,77.5-4.3c19.2-3.7,34.8-11.8,45-28.7C345.3,197.3,349.6,179.3,347.9,162.4z"/>
<path class="st2" d="M110.8,131.8H50.4c-0.5,0-0.9,0.4-0.9,0.9v32l0,0v0.5l0.1-0.1c0.1,0.3,0.4,0.5,0.8,0.5h60.3
	c0.5,0,0.9-0.4,0.9-0.9v-32C111.6,132.2,111.2,131.8,110.8,131.8z"/>
<path class="st1" d="M122,149.9l-1.3,22h-43C86.4,158.8,103,149.9,122,149.9 M123.4,148.7H122c-18.8,0-36.2,8.7-45.4,22.6l-1.3,2
	h46.6l0.1-1.2l1.3-22L123.4,148.7L123.4,148.7z"/>
<g>
	<g>
		<defs>
			<path id="SVGID_1_" d="M347.9,162.4c-2.7-27.8-21.7-47.1-42.2-64.1c-16.8-14-33.9-27.7-51.2-41.1c-19.2-14.9-38.1-33.4-60-44.4
				c-25.7-13-54.6-12.4-81.9-4.6c-21.9,6.3-38.6,21.6-46,43.2c-3.5,10.3-5.4,21.8-5.1,32.7c0.3,9.2,2,18.3,2.9,27.5
				c0.6,5.3,0.6,10.6,0.2,15.9c-0.1,1.5-0.3,3-0.6,4.4c-2.2,12.5-8.1,23-14.6,33.4c-2.9,4.6-5.9,9.2-8.8,13.9
				c-9.5,15.6-12.7,35.7-11.1,53.8c1.7,19,8,39.9,23.5,52.2c26.5,21,69.6,10.9,92.4-11.1c18.3-17.6,43.2-27.8,68.5-29.3
				c25.7-1.5,51.9,0.7,77.5-4.3c19.2-3.7,34.8-11.8,45-28.7C345.3,197.3,349.6,179.3,347.9,162.4z"/>
		</defs>
		<clipPath id="SVGID_00000064337933872124368290000016339606579919972272_">
			<use xlink:href="#SVGID_1_"  style="overflow:visible;"/>
		</clipPath>
		<g style="clip-path:url(#SVGID_00000064337933872124368290000016339606579919972272_);">
			<path class="st4" d="M32.4,199.5c2.7-0.9,5.6-0.8,8.3,0.4c4.7-13.1,18.6-20.5,32.1-16.8c5.1-19,25.3-33.2,49.3-33.2
				c6,0,11.9,0.9,17.6,2.7l32.7,51.4c0,0,2.2,2.1,1.8,8.6c0,0,14.2,0.4,12.6,20.7h-68.5v0H35.6c-2,0-3.9-0.3-5.7-0.9l-8-1l2.2-33.4
				L32.4,199.5z"/>
		</g>
	</g>
</g>
<g>
	<g>
		<defs>
			<path id="SVGID_00000080204166195793311150000003088051485811378604_" d="M77.7,295.8c23.9,4,51.2-5.7,67.9-21.7
				c5.5-5.3,11.6-9.9,18.2-13.9c0,0-62.2-10.6-74.2,0S77.7,295.8,77.7,295.8z"/>
		</defs>
		<clipPath id="SVGID_00000018209987273002609250000016166036905105251766_">
			<use xlink:href="#SVGID_00000080204166195793311150000003088051485811378604_"  style="overflow:visible;"/>
		</clipPath>
		<g style="clip-path:url(#SVGID_00000018209987273002609250000016166036905105251766_);">
			<path class="st6" d="M101.2,296.7c0,0,3-9.3,1.5-16.2s-2.1-15.7-2.1-15.7l23.3-7.9l13.7,6c0,0,1.5,12.1,4.1,17.2
				C141.7,280.1,144.2,304.7,101.2,296.7z"/>
			<path class="st7" d="M106.5,275.6c0.7,3.3,2.6,6.3,5.3,8.4c4.6,3.4,6.8,8.9,6.8,8.9"/>
		</g>
	</g>
</g>
<path class="st2" d="M347.6,100h-25.9c-0.5,0-0.9,0.4-0.9,0.9v32.1l0,0c0,0.5,0.4,0.9,0.9,0.9h25.9c0.5,0,0.9-0.4,0.9-0.9v-32.1
	C348.4,100.3,348.1,100,347.6,100z"/>
<path class="st2" d="M327.2,28.8h73.4c0.5,0,0.9,0.4,0.9,0.9v32.1c0,0.5-0.4,0.9-0.9,0.9h-73.4c-0.5,0-0.9-0.4-0.9-0.9V29.6
	C326.4,29.2,326.8,28.8,327.2,28.8z"/>
<path class="st2" d="M187,117.3c-13,0-23.5-10.6-23.5-23.6c0-12.4,9.6-22.6,22-23.4c-0.5-2.9-0.8-5.8-0.8-8.7
	c0-31.1,29.8-56.3,66.7-56.3c31.6,0,58.1,18.7,64.9,43.7c17.7-4.8,36.1,4.9,42.2,22.1c12.5-3.6,25.6,3.6,29.2,16.1
	c3.6,12.5-3.6,25.6-16.1,29.2c-2.1,0.6-4.3,0.9-6.5,0.9H187z"/>
<path class="st2" d="M2.4,131.8h39c0.5,0,0.9,0.4,0.9,0.9v32c0,0.5-0.4,0.9-0.9,0.9h-39c-0.5,0-0.9-0.4-0.9-0.9v-32
	C1.5,132.2,1.9,131.8,2.4,131.8z"/>
<path class="st2" d="M84.8,91.6h25.9c0.5,0,0.9,0.4,0.9,0.9v32.1c0,0.5-0.4,0.9-0.9,0.9H84.8c-0.5,0-0.9-0.4-0.9-0.9V92.4
	C84,92,84.4,91.6,84.8,91.6z"/>
<polygon class="st8" points="276.1,204.6 125.3,204.6 125.3,83.3 125.3,64.2 276.1,64.2 "/>
<line class="st9" x1="297" y1="72.6" x2="340.4" y2="72.6"/>
<line class="st9" x1="321.2" y1="81.4" x2="340.4" y2="81.4"/>
<line class="st9" x1="297" y1="81.4" x2="316.4" y2="81.4"/>
<line class="st9" x1="332.5" y1="90.7" x2="340.4" y2="90.7"/>
<line class="st9" x1="297" y1="90.7" x2="327.7" y2="90.7"/>
<line class="st9" x1="308.3" y1="99.8" x2="340.4" y2="99.8"/>
<line class="st9" x1="297" y1="99.8" x2="303.5" y2="99.8"/>
<line class="st9" x1="291.4" y1="72" x2="291.4" y2="100.4"/>
<polygon class="st10" points="279.1,201.6 128.3,201.6 128.3,80.3 128.3,61.3 279.1,61.3 "/>
<rect x="128.3" y="61.3" class="st11" width="150.8" height="22.1"/>
<circle class="st6" cx="256.5" cy="72.5" r="3.3"/>
<circle class="st6" cx="268.8" cy="72.5" r="3.3"/>
<path class="st2" d="M292,28.8h25.9c0.5,0,0.9,0.4,0.9,0.9v32.1c0,0.5-0.4,0.9-0.9,0.9H292c-0.5,0-0.9-0.4-0.9-0.9V29.6
	C291.2,29.2,291.5,28.8,292,28.8z"/>
<polyline class="st10" points="186.8,201.6 128.3,201.6 128.3,138.7 "/>
<line class="st9" x1="128.3" y1="20" x2="171.8" y2="20"/>
<line class="st9" x1="152.5" y1="28.8" x2="171.8" y2="28.8"/>
<line class="st9" x1="128.3" y1="28.8" x2="147.7" y2="28.8"/>
<line class="st9" x1="163.8" y1="38" x2="171.8" y2="38"/>
<line class="st9" x1="128.3" y1="38" x2="159" y2="38"/>
<line class="st9" x1="139.7" y1="47.1" x2="171.8" y2="47.1"/>
<line class="st9" x1="128.3" y1="47.1" x2="134.8" y2="47.1"/>
<line class="st9" x1="122.7" y1="19.3" x2="122.7" y2="47.7"/>
<path class="st2" d="M62.2,91.6H2.4c-0.5,0-0.9,0.4-0.9,0.9v32.1c0,0.5,0.4,0.9,0.9,0.9h74.3V91.6H62.2L62.2,91.6z"/>
<path class="st12" d="M120.1,164.7c0,0,2.3-3,1.9-3.8c-0.3-0.8,0.4-1.9,1.2-3.8c0.6-1.3,0.6-2.9,0-4.2c-0.4-0.8-1.5,0.4-1.5,1.2
	c0,0.8-1.9,3.8-1.9,3.8v-7.6c0,0-2.3,3-3,4.2c-0.7,1.2,0,4.2,0.8,6.1c0.8,1.9-0.6,4.3-0.6,4.3l3.2,1.6L120.1,164.7z"/>
<path class="st13" d="M116.9,164.9c0,0,1.4-2.4,0.6-4.3s-1.5-5-0.8-6.1c0.8-1.1,3-4.2,3-4.2"/>
<path class="st0" d="M127.6,94.3v98.9c0,0.6,0.5,1.1,1,1.1l0,0h65.6c0.6,0,1.1-0.5,1.1-1l0,0v-99c0-0.6-0.5-1-1.1-1l0,0h-65.6
	C128.1,93.2,127.6,93.7,127.6,94.3L127.6,94.3z"/>
<rect x="119.9" y="91.6" class="st10" width="79.6" height="99.8"/>
<path class="st12" d="M113.9,193.5c0,0,5.1,1.5,7.7,0.4s2.3-9.9,2.3-9.9c0.8-0.6,1.4-1.4,1.8-2.4c0.1-0.2,0-0.4-0.1-0.6
	c-0.8-0.7-1.7-1.4-2.2-2.3c-0.8-1.4-0.9-3.2-1-4.7c-0.4-5-2.5-6.7-2.5-6.7s-5.6-4.7-14.5-0.2c-8.8,4.5-2.6,26.5-2.6,26.5
	s0,6.1-0.4,7.2c-0.4,1.2-1.9,3-1.9,3s1.8,3.6,17.7-1.4c-1.7-1.5-2.9-3.5-3.5-5.7L113.9,193.5z"/>
<path class="st14" d="M120.2,167.3c0-0.7,0-1.5,0-2.2c0-0.6,0.4-1.2,0.7-1.7c0.3-0.6,0.6-1.2,0.9-1.8c0.6-1.5,0.9-3,1.5-4.5
	c0.5-1.2,0.9-2.7,0.3-3.8c-0.5-0.9-1.5-0.3-1.8,0.4c-0.2,0.8-0.5,1.6-0.9,2.3c-0.3,0.6-0.7,1.2-1.1,1.8l-1.1,1.2l-0.2,2.9v5
	L120.2,167.3z"/>
<path class="st15" d="M113.6,192.8c0.6,2.2,2.1,7.5,3.9,9.3"/>
<path class="st16" d="M163.5,216.2c0.7-1.2,1.5-2.5,2.2-3.8l0,0c3.5-6.1,6.6-12.1,7.1-13.2c1-2.1,3.2-4.4,6.3-4.8s5.3-2.7,5.5-2.7
	c0,0,0.1-0.2,0-0.2c0-0.1-0.1-0.1-0.2-0.1h-6.8c-0.5,0-1.3-0.2-1.5-0.6c-0.1-0.3,0.2-0.7,0.5-1c1.2-1.2,2.1-3.5,1.6-3.9
	c-0.1-0.1-0.3-0.1-0.4,0c-0.1,0.1-0.3,0.2-0.4,0.3c-0.6,0.6-1.5,1-2.6,1.6c-1.3,0.6-2.6,1.4-3.8,2.2c-2.6,1.8-2.1,5.2-2,5.9
	c-3.5,5-7.3,9.8-11.5,14.3L163.5,216.2z"/>
<path class="st17" d="M113.9,183.8c0.9,1.3,2,2.1,3.3,0.8"/>
<path class="st13" d="M160.2,207c3.2-3.6,6.1-7.4,8.8-11.4c0,0-0.8-3.8,1.9-5.7c1.2-0.8,2.4-1.5,3.6-2.1c1.1-0.6,2.7-2.7,3.4-1.9
	c1.1,0.9-0.8,2.6-1.7,3.6c-1.5,1.5,0.4,1.9,1.2,1.9h6.8c0,0-2.3,2.3-5.3,2.7c-3.1,0.4-5.3,2.7-6.5,5c-0.6,1.1-3.5,6.6-6.7,12.4"/>
<path class="st18" d="M122.3,173.7c0-0.3,0-0.5-0.1-0.8c-0.3,0-0.6,0.2-0.8,0.5c-0.3,0.3-0.6,0.6-0.9,1c-0.1,0.1-0.2,0.3-0.2,0.4
	c0,0.3,0.4,0.1,0.6,0C121.5,174.5,121.9,174.1,122.3,173.7z"/>
<path class="st0" d="M160.4,206.8c-0.1,0-0.1,0-0.2,0.1c-3.8,4.3-6.8,7.4-7.4,7.9c-1.9-0.8-24.3-9.5-25-9.8c-0.1,0-7.8-3.5-12.4-2.3
	c-4.1,1.1-9.4,2.3-13.6,1.2c-0.7-0.2-1.5-0.1-2,0.3c-2.4,1.8-2.4,8.7-2.4,9c0,0,0,0,0,0.1l0.4,1.2c0,0,0,0,0,0
	c1.9,2.6,4.5,7.5,4.5,7.6c1.9,3.8,2.2,7.7,0.8,12.2c0,0,0,0.1,0,0.1c0.7,3.9,1.2,8,1.5,12c0.4,6.7-5.3,17.3-5.3,17.4s0,0.2,0,0.3
	c4.2,4.2,18.2,5,18.8,5h1.4c16.6,0,18.9-6.7,19-7c0,0,0-0.1,0-0.1c0-0.1-3.4-8-4.2-10.3c-0.7-2.1-2.7-12.8-1.2-18.9
	c0.9-3.6,0.6-7.4-0.7-10.9c10.9,2.9,17.3,4.7,19.2,5.3c3.7,1.1,5-0.6,5.2-0.8c1.6-1.6,4.6-6.3,8.9-13.9c0,0,0,0,0-0.1
	C165.8,207.8,160.6,206.8,160.4,206.8z"/>
<path class="st9" d="M131.9,221.4c1.5,3.5,1.8,7.4,0.9,11.1c-1.5,6.1,0.4,16.8,1.2,19c0.8,2.3,4.2,10.3,4.2,10.3s-2.3,7.2-20.2,6.8
	c0,0-14.5-0.8-18.6-5c0,0,5.7-10.6,5.3-17.5c-0.2-4-0.7-8-1.5-12"/>
<path class="st19" d="M285.6,127.4l3.8,3.8c1.2,1.2,0.4,3.4,0,5.3c-0.4,1.9,0.4,4.6,0.4,4.6h-7.9v-13.7H285.6z"/>
<path class="st20" d="M289.7,141.1c0,0-0.8-2.7-0.4-4.6c0.4-1.9,1.2-4.2,0-5.3l-3.8-3.8"/>
<path class="st21" d="M284.4,145.3v-3.4c0,0,3.4-1.2,5.3-0.8l2.7,0.8l0.9,3.4c-1.9-0.7-4-0.9-6-0.6c0,0-1.4,0.2-1.8,0.3
	C285.1,145.1,284.4,145.3,284.4,145.3z"/>
<path class="st0" d="M277.3,93.3h-46.6c-0.3,0-0.6,0.3-0.6,0.6v68.5c0,0.3,0.2,0.6,0.6,0.6h46.6c0.3,0,0.6-0.3,0.6-0.6V93.9
	C277.8,93.6,277.6,93.3,277.3,93.3z"/>
<path class="st0" d="M223,167.2h43.4c0.3,0,0.6,0.3,0.6,0.6v24c0,0.3-0.3,0.6-0.6,0.6H223c-0.3,0-0.6-0.3-0.6-0.6v-24
	C222.4,167.5,222.7,167.2,223,167.2z"/>
<rect x="233" y="91.6" class="st10" width="52.5" height="68.5"/>
<rect x="225" y="165.9" class="st10" width="43.4" height="24"/>
<path class="st19" d="M262.3,189.9c-2.7,1.2-6-0.4-7.3-2.9c-1.1-2.1-1.1-4.7-1.1-7.1c0-2.7,0-5,0.4-5.7c0.8-1.3,1.2-2.7,1.2-4.2
	c0-2.3,1.3-5,1.3-5s16.9-1.2,19.9,14.1l1.2,6.1l-0.1,6.8l0,0c-0.6-0.2-0.6,0.1-0.6,0.1c-7.4,0.9-12.5,3.3-14.8,4.6l0,0
	C262.7,194.4,262.7,192.1,262.3,189.9L262.3,189.9z"/>
<circle class="st6" cx="225" cy="189.9" r="3"/>
<path class="st20" d="M256.8,165.1c0,0-1.3,2.7-1.3,5c0,1.5-0.4,2.9-1.2,4.2c-0.4,0.8-0.4,3-0.4,5.7c0,2.3,0,4.9,1.1,7.1
	c1.3,2.4,4.6,4,7.3,2.9"/>
<path class="st22" d="M262.3,196.7c0.4-2.3,0.5-4.6,0.1-6.9"/>
<path class="st23" d="M283.4,193.3c0,0,1.8,1.2,3.3,1.2"/>
<path class="st8" d="M280.9,195.3c0,0,2.4-0.8,3.5-3.9c0.8-2.1,2-7.4,2.7-11.7c0.2-1.2,0.4-5.4,0.4-5.4c-1-0.2,0-3.4,0-3.4
	c-0.8,0.1-0.3-0.7-0.4-1.6c-0.2-1.1-0.5-2.3-0.9-3.3c-0.1-0.3-0.2-0.6-0.3-0.8c-0.8-1.9-1.5-6.1-1.5-6.1v-13.7c0,0,7.6-2.7,10.6,1.9
	c0,0,1.9,14.5,2.7,17.9c0.7,3.5,1.5,9.1,1.2,12.6c-0.4,3.4-1.9,19-5,26.7c-3,7.7-5.3,17.8-5.3,21.6l-0.7,11.1"/>
<line class="st24" x1="250.7" y1="231.4" x2="250.7" y2="244"/>
<path class="st19" d="M285.9,135.4c-0.7-1.4-1.6-2.7-2.7-3.8c-1.2-1.2-2.3-0.8-1.9,0c0.3,0.8,1.5,3,1.5,5c0,1.9,2.7,2.7,2.7,2.7
	l1.9,0.6v-3.5L285.9,135.4z"/>
<path class="st20" d="M285.9,135.4c-0.4-0.8-1.8-2.9-2.6-4.2c-0.3-0.4-0.7-0.9-1.2-0.9c-1.6,0.2-0.3,2.1,0,2.8
	c0.5,1.1,0.8,2.2,0.8,3.4c0,1.9,2.7,2.7,2.7,2.7l1.3,0.6"/>
<path class="st22" d="M260.9,177.7c-0.2,0.8-0.5,1.6-0.8,2.3c0,0-0.8,2.3-1.9,1.9c-0.6-0.3-1-0.9-1.2-1.5"/>
<path class="st25" d="M223.8,186.8v-9.9c-0.8,0.4-1.5,1.1-1.9,1.9l-3.4,6.8c-0.4,0.8,1.5,4.2,2.7,5.7c1.1,1.5,0.9,4.7,0.9,4.7l6-0.9
	c-0.3-1.9,0.3-3.9,1.6-5.3c1.2-1.2,0.4-2.7,0-4.2c-0.3-1.2,1.5-4.6-0.2-5c-1.3-0.4-1.8,2-2.1,2.7c-1.2,3-2.7,3.4-2.7,3.4"/>
<path class="st8" d="M260.9,177.7c0.3-1.2,0.5-2.5-0.1-3c-1.2-1.2-2.3,0.8-3.4,1.2c-1.2,0.4-0.4-2.7,0-4.2s0-4.6,0-4.6s-1.5-3.4,0-5
	c0,0,0.8-2.7,2.7-2.7c0,0-0.4-1.9,2.3-2.3c0,0,1.5-1.9,4.6-1.5c0,0,3.8-1.5,5.3,0c0.7,0,1.4,0.3,1.9,0.8c0,0,2.7,0,3.8,2.3
	c0,0,2.3,0.8,2.7,2.7c0,0,1.5,1.2,1.5,2.3c0,0,1.5,1.5,1.5,3c0,0,1.2,1.2,0.8,3.4c0,0,0,3-1.5,4.6c0,0-0.8,4.2-1.9,5
	c0,0-1.2,3.2-1.9,4.1c-0.8,0.9-1.5,3.2-5.3,3.2s-9.9-1.5-11.4-5l-1.7-2.7L260.9,177.7z"/>
<path class="st9" d="M160.2,207c0,0,5.2,0.9,5.1,5.2"/>
<path class="st9" d="M97.4,213.1c0,0,0-10.3,4.2-9.1s9.5,0,13.7-1.2c4.2-1.2,11.4,1.9,12.2,2.3c0.8,0.3,25.1,9.9,25.1,9.9
	s3.1-2.9,7.5-8"/>
<path class="st9" d="M165.3,212.2c-2,3.5-3.6,6.4-5.5,9.2"/>
<path class="st21" d="M229.7,199l-0.9-3.8c-5.3-0.4-8.4,2.3-8.4,2.3l1.7,4.1c0,0,3.3-1.8,5.9-2.2L229.7,199z"/>
<path class="st17" d="M239.3,218.5c0,0-6.6-10.3-8.6-19.5c0,0-6.5,0.4-10.3,3.8c0,0,4.2,20.9,11.8,32.4c0,0,0.8,2.3,2.7,1.9
	c1.9-0.3,13.7-3,20.2-8.8"/>
<path d="M239.3,218.5c0,0-6.6-10.3-8.6-19.5c0,0-6.5,0.4-10.3,3.8c0,0,4.2,20.9,11.8,32.4c0,0,0.8,2.3,2.7,1.9
	c1.5-0.3,9.4-2.1,15.8-5.7l0,0V244h37.2c0,0,3.8-38.2-1.8-48.4c0,1.2-7.4,5.6-10,6.4c-2.7,0.8-10.6,0-13.3,0.4c-2.7,0.4-8,3.4-8,3.4
	l-6.1,3.8c0,0-4.8,4.2-9,8.4"/>
<path class="st21" d="M279.8,194.4h-1.9c-9.5,1.2-17.9,5.7-17.9,5.7s0-1.9,1.2-2.7c1.2-0.7,6.8-4.2,16-5.3
	C277.2,192.2,279.4,191.4,279.8,194.4z"/>
<path class="st8" d="M96.7,181.1c-6.6-0.1-10.4,5.8-11.1,11.8c-1,8.8,6.7,15.1,6.1,24c-0.4,5.7-1.9,12.6,2.7,16
	c4.6,3.4,5.3,3.4,5.3,3.4s0.8,3.3-0.4,6.1c0,0,8-10.7,3-20.6c0,0-2.7-5-4.6-7.6c0,0-2.3-3.8-1.5-8.4c0.7-4.6,1.9-6.5,2.3-7.2
	c0.3-0.6,2.1-4.2,2.6-8l0.1,0.4l1.5,2.7c2.7,0,5-0.8,7.2-1.9c2.3-1.2,4.1-7.7,4.1-7.7l-0.2-0.3c-0.8-1.3-1.3-2.7-1.6-4.2
	c-0.4-1.9,1.5-3,2.3-1.9c0.8,1.1,2.7,1.2,2.7,1.2c-0.4-1.9,0.8-4.6,1.9-5.7c1.2-1.2,1.2-5.3,1.2-5.3s-5-5.7-10.3-5.3
	s-8.4,2.3-10.6,5c-2.3,2.7-3.8,5.3-3.8,8c0,1.7,0.3,3.3,0.8,5"/>
<path class="st26" d="M97.4,182.3c0,0-3.6-2.9,0-2.3c2.7,0.4,3.8,3.5,3.4,3.8C100.4,184.2,99.3,183.8,97.4,182.3z"/>
<path d="M159.4,220.9c0,0-3.8,3.4-10.7,2.2c-7.3-1.3-20.7-5.6-20.9-5.6c-0.1,0-0.2,0-0.2,0l-6.6,0.3c-0.3,0-0.6,0.3-0.6,0.6
	s0.2,0.6,0.5,0.7l3,0.8c7.3,2,24.2,6.6,27.5,7.6c0.8,0.3,1.6,0.4,2.4,0.4c2.1,0,3-1.1,3.2-1.4c0.9-0.9,2-2.5,3.4-4.7l3.8-6.2
	c0,0,0-0.1,0,0c-1,1.2-3.9,4.8-4.3,5.1L159.4,220.9z"/>
<path class="st0" d="M224.4,186.2v-9.3c0-0.3-0.3-0.6-0.6-0.6c-0.1,0-0.2,0-0.3,0.1c-0.4,0.2-0.8,0.5-1.1,0.8v7.8
	C222.7,185.7,223.6,186.2,224.4,186.2z"/>
<path class="st27" d="M254.7,205.9l-6.1,3.8c0,0-7.8,6.8-12.1,11.7"/>
<path class="st28" d="M279.8,194.6c-0.6-0.1-1.2-0.2-1.9-0.1c-9.5,1.2-17.9,5.7-17.9,5.7s-5,2.7-5.2,3.8l-0.2,1.9c0,0,5.3-3,8-3.4
	c2.7-0.4,10.7,0.4,13.3-0.4c2.7-0.8,6.5-3.4,6.5-4.6c0-1-1.3-2-2-2.5C280.3,194.8,280.1,194.7,279.8,194.6z"/>
<path class="st29" d="M282.5,272h70.2c6.7,0,12.2-5.4,12.2-12.1c0-6.7-5.4-12.2-12.1-12.2c-1,0-2.1,0.1-3,0.4
	c-2.6-6.2-8.6-10.3-15.3-10.6c-5-13.1-19.7-19.7-32.8-14.6c-5.7,2.2-10.5,6.4-13.3,11.8c-10-3.1-20.8,2.5-23.9,12.6
	c-3.1,10,2.5,20.8,12.6,23.9C278.7,271.7,280.6,272,282.5,272z"/>
<path class="st0" d="M282.5,233.8c1.9,0,3.8,0.3,5.6,0.9c6.6-12.4,22-17.1,34.4-10.6c5.4,2.9,9.6,7.6,11.8,13.3
	c6.7,0.2,12.7,4.4,15.3,10.6c6.5-1.7,13.2,2.2,14.8,8.7c1.7,6.5-2.2,13.2-8.7,14.8c-1,0.3-2.1,0.4-3.1,0.4h-70.1
	c-10.5,0-19.1-8.6-19.1-19.1C263.4,242.4,272,233.8,282.5,233.8L282.5,233.8z"/>
<line class="st30" x1="132.9" y1="66.4" x2="213.2" y2="66.4"/>
</svg>
